<?xml version="1.0" encoding="utf-8"?>
<!-- Generator: Adobe Illustrator 25.4.1, SVG Export Plug-In . SVG Version: 6.00 Build 0)  -->
<svg version="1.1" id="Layer_1" xmlns="http://www.w3.org/2000/svg" xmlns:xlink="http://www.w3.org/1999/xlink" x="0px" y="0px"
	 viewBox="0 0 562.5 194" style="enable-background:new 0 0 562.5 194;" xml:space="preserve">
<style type="text/css">
	.st0{fill:#1E1E2D;}
	.st1{fill:none;stroke:#1E1E2D;stroke-width:1.1735;stroke-miterlimit:10;}
	.st2{fill:#F8F3E7;}
	.st3{fill:#FFFFFF;}
</style>
<g>
	<g>
		<path class="st0" d="M210.1,58.6h6l-12.3,14.2l12.9,21.9h-7l-10-17l-3.5,4.1v12.9H190V58.6h6.1v16.2L210.1,58.6z"/>
		<path class="st0" d="M256.4,73.9v4.5h-10.9v11.7h12.8v4.5h-18.9V58.6h18.6v4.5h-12.5v10.8H256.4z"/>
		<path class="st0" d="M300.8,94.7l-13.5-27.6v27.6h-4.7V58.6h7.4l13.4,27.6V58.6h4.7v36.1H300.8z"/>
		<path class="st0" d="M357.6,87.1v5.4c-3.2,1.7-6.2,2.6-9.1,2.6c-5.1,0-8.8-1.3-11.3-4c-2.7-3-4.1-7.8-4.1-14.6
			c0-6.7,1.4-11.6,4.1-14.5c2.4-2.6,6.2-4,11.3-4c3.1,0,6,0.8,8.7,2.5v5.6c-2.4-2.3-5.3-3.5-8.7-3.5c-3.3,0-5.6,1.1-7,3.4
			c-1.4,2.1-2,5.6-2,10.4c0,4.8,0.7,8.3,2,10.5c1.4,2.3,3.7,3.4,7,3.4C351.5,90.5,354.5,89.4,357.6,87.1z"/>
		<path class="st0" d="M396.2,58.1c4.8,0,8.4,1.3,10.8,4c2.7,3,4.1,7.9,4.1,14.5c0,6.7-1.4,11.5-4.1,14.5c-2.4,2.7-6,4.1-10.8,4.1
			c-4.8,0-8.4-1.4-10.9-4.1c-2.7-3-4.1-7.8-4.1-14.5c0-6.7,1.4-11.5,4.1-14.5C387.8,59.5,391.4,58.1,396.2,58.1z M404.7,76.6
			c0-4.8-0.6-8.3-1.9-10.4c-1.4-2.3-3.6-3.4-6.6-3.4c-3.1,0-5.3,1.1-6.6,3.4c-1.3,2.1-1.9,5.6-1.9,10.4c0,4.8,0.6,8.3,1.9,10.5
			c1.3,2.3,3.5,3.4,6.6,3.4c3.1,0,5.3-1.1,6.6-3.4C404.1,85,404.7,81.5,404.7,76.6z"/>
		<path class="st0" d="M454.5,94.7h-17.9V58.6h6.1v31.5h11.8V94.7z"/>
		<path class="st0" d="M491.2,58.1c4.8,0,8.4,1.3,10.8,4c2.7,3,4.1,7.9,4.1,14.5c0,6.7-1.4,11.5-4.1,14.5c-2.4,2.7-6,4.1-10.8,4.1
			c-4.8,0-8.4-1.4-10.9-4.1c-2.7-3-4.1-7.8-4.1-14.5c0-6.7,1.4-11.5,4.1-14.5C482.8,59.5,486.4,58.1,491.2,58.1z M499.7,76.6
			c0-4.8-0.6-8.3-1.9-10.4c-1.4-2.3-3.6-3.4-6.6-3.4c-3.1,0-5.3,1.1-6.6,3.4c-1.3,2.1-1.9,5.6-1.9,10.4c0,4.8,0.6,8.3,1.9,10.5
			c1.3,2.3,3.5,3.4,6.6,3.4c3.1,0,5.3-1.1,6.6-3.4C499.1,85,499.7,81.5,499.7,76.6z"/>
		<path class="st0" d="M545.7,76.3c1.7,0.6,3.4,3.1,5,7.6l4,10.9h-6.5l-4-11c-1.3-3.5-2.8-5.2-4.6-5.2h-3.2v16.2h-6.1V58.6h11.9
			c6.8,0,10.2,3.2,10.2,9.5c0,2.4-0.9,4.4-2.6,6C548.5,75.2,547.2,75.9,545.7,76.3z M540.6,73.9c3.7,0,5.6-1.9,5.6-5.8
			c0-1.2-0.3-2.3-0.9-3.2c-0.7-1.2-1.9-1.8-3.4-1.8h-5.5v10.8H540.6z"/>
	</g>
	<g>
		<path class="st0" d="M192.4,122.2v5.3h6.2v-5.3h1.7V135h-1.7v-6h-6.2v6h-1.6v-12.7H192.4z"/>
		<path class="st0" d="M217.6,135l-0.1-1.2h-0.1c-0.5,0.7-1.5,1.4-2.8,1.4c-1.9,0-2.8-1.3-2.8-2.6c0-2.2,2-3.4,5.5-3.4v-0.2
			c0-0.8-0.2-2.1-2.1-2.1c-0.9,0-1.7,0.3-2.4,0.7l-0.4-1.1c0.8-0.5,1.9-0.8,3-0.8c2.8,0,3.5,1.9,3.5,3.7v3.4c0,0.8,0,1.6,0.2,2.2
			H217.6z M217.4,130.3c-1.8,0-3.9,0.3-3.9,2.1c0,1.1,0.7,1.6,1.6,1.6c1.2,0,1.9-0.8,2.2-1.5c0.1-0.2,0.1-0.4,0.1-0.5V130.3z"/>
		<path class="st0" d="M231.6,125.8l2,5.4c0.2,0.6,0.4,1.3,0.6,1.9h0c0.2-0.5,0.4-1.2,0.6-1.9l1.8-5.4h1.8l-2.5,6.5
			c-1.2,3.1-2,4.7-3.1,5.7c-0.8,0.7-1.6,1-2,1.1l-0.4-1.4c0.4-0.1,1-0.4,1.5-0.8c0.5-0.4,1-1,1.4-1.9c0.1-0.2,0.1-0.3,0.1-0.4
			c0-0.1,0-0.2-0.1-0.4l-3.4-8.4H231.6z"/>
		<path class="st0" d="M254.3,135l-0.1-1.2h-0.1c-0.5,0.7-1.5,1.4-2.8,1.4c-1.9,0-2.8-1.3-2.8-2.6c0-2.2,2-3.4,5.5-3.4v-0.2
			c0-0.8-0.2-2.1-2.1-2.1c-0.9,0-1.7,0.3-2.4,0.7l-0.4-1.1c0.8-0.5,1.9-0.8,3-0.8c2.8,0,3.5,1.9,3.5,3.7v3.4c0,0.8,0,1.6,0.2,2.2
			H254.3z M254.1,130.3c-1.8,0-3.9,0.3-3.9,2.1c0,1.1,0.7,1.6,1.6,1.6c1.2,0,1.9-0.8,2.2-1.5c0.1-0.2,0.1-0.4,0.1-0.5V130.3z"/>
		<path class="st0" d="M269.7,123.2v2.6h2.4v1.3h-2.4v4.9c0,1.1,0.3,1.8,1.2,1.8c0.4,0,0.8-0.1,1-0.1l0.1,1.2
			c-0.3,0.1-0.8,0.2-1.5,0.2c-0.8,0-1.4-0.2-1.8-0.7c-0.5-0.5-0.6-1.3-0.6-2.4v-5h-1.4v-1.3h1.4v-2.2L269.7,123.2z"/>
		<path class="st0" d="M283.5,135v-9.2h1.7v9.2H283.5z"/>
		<path class="st0" d="M297.3,128.3c0-0.9,0-1.7-0.1-2.5h1.5l0.1,1.5h0c0.5-0.9,1.5-1.7,3-1.7c1.3,0,3.2,0.8,3.2,3.9v5.5h-1.7v-5.3
			c0-1.5-0.5-2.7-2.1-2.7c-1.1,0-1.9,0.8-2.2,1.7c-0.1,0.2-0.1,0.5-0.1,0.8v5.5h-1.7V128.3z"/>
		<path class="st0" d="M317.3,135v-9.2h1.7v9.2H317.3z"/>
		<path class="st0" d="M344.7,122.4c0.8-0.2,2-0.3,3.2-0.3c1.8,0,2.9,0.3,3.7,1c0.6,0.6,1,1.4,1,2.4c0,1.7-1.1,2.8-2.4,3.3v0.1
			c1,0.3,1.6,1.2,1.9,2.6c0.4,1.8,0.7,3,1,3.5h-1.7c-0.2-0.4-0.5-1.5-0.9-3c-0.4-1.8-1.1-2.4-2.6-2.5h-1.6v5.5h-1.6V122.4z
			 M346.4,128.2h1.7c1.8,0,2.9-1,2.9-2.4c0-1.6-1.2-2.4-2.9-2.4c-0.8,0-1.4,0.1-1.6,0.2V128.2z"/>
		<path class="st0" d="M365.3,130.7c0,2.3,1.5,3.2,3.1,3.2c1.2,0,1.9-0.2,2.5-0.5l0.3,1.2c-0.6,0.3-1.6,0.6-3,0.6
			c-2.8,0-4.5-1.9-4.5-4.6c0-2.8,1.6-4.9,4.3-4.9c3,0,3.8,2.6,3.8,4.3c0,0.3,0,0.6-0.1,0.8H365.3z M370.2,129.5
			c0-1.1-0.4-2.7-2.3-2.7c-1.7,0-2.4,1.6-2.6,2.7H370.2z"/>
		<path class="st0" d="M383.3,128.3c0-0.9,0-1.7-0.1-2.5h1.5l0.1,1.5h0c0.5-0.9,1.5-1.7,3-1.7c1.3,0,3.2,0.8,3.2,3.9v5.5h-1.7v-5.3
			c0-1.5-0.5-2.7-2.1-2.7c-1.1,0-1.9,0.8-2.2,1.7c-0.1,0.2-0.1,0.5-0.1,0.8v5.5h-1.7V128.3z"/>
		<path class="st0" d="M404.9,130L404.9,130c0.3-0.3,0.6-0.7,0.9-1l2.7-3.2h2l-3.5,3.8l4,5.4h-2l-3.2-4.4l-0.9,0.9v3.4h-1.6v-13.4
			h1.6V130z"/>
		<path class="st0" d="M421.9,121.5h1.7V135h-1.7V121.5z"/>
		<path class="st0" d="M436.8,130.7c0,2.3,1.5,3.2,3.1,3.2c1.2,0,1.9-0.2,2.5-0.5l0.3,1.2c-0.6,0.3-1.6,0.6-3,0.6
			c-2.8,0-4.5-1.9-4.5-4.6c0-2.8,1.6-4.9,4.3-4.9c3,0,3.8,2.6,3.8,4.3c0,0.3,0,0.6-0.1,0.8H436.8z M441.6,129.5
			c0-1.1-0.4-2.7-2.3-2.7c-1.7,0-2.4,1.6-2.6,2.7H441.6z"/>
		<path class="st0" d="M454.8,128.3c0-0.9,0-1.7-0.1-2.5h1.5l0.1,1.5h0c0.5-0.9,1.5-1.7,3-1.7c1.3,0,3.2,0.8,3.2,3.9v5.5h-1.7v-5.3
			c0-1.5-0.5-2.7-2.1-2.7c-1.1,0-1.9,0.8-2.2,1.7c-0.1,0.2-0.1,0.5-0.1,0.8v5.5h-1.7V128.3z"/>
		<path class="st0" d="M482.6,121.5v11.1c0,0.8,0,1.7,0.1,2.4h-1.5l-0.1-1.6h0c-0.5,1-1.6,1.8-3.1,1.8c-2.2,0-3.9-1.9-3.9-4.7
			c0-3,1.9-4.9,4.1-4.9c1.4,0,2.3,0.7,2.8,1.4h0v-5.5H482.6z M481,129.5c0-0.2,0-0.5-0.1-0.7c-0.2-1.1-1.2-1.9-2.4-1.9
			c-1.7,0-2.7,1.5-2.7,3.5c0,1.9,0.9,3.4,2.7,3.4c1.1,0,2.1-0.7,2.4-2c0.1-0.2,0.1-0.5,0.1-0.7V129.5z"/>
		<path class="st0" d="M496.7,123.2c0,0.6-0.4,1-1.1,1c-0.6,0-1-0.5-1-1c0-0.6,0.4-1,1-1C496.3,122.2,496.7,122.6,496.7,123.2z
			 M494.8,135v-9.2h1.7v9.2H494.8z"/>
		<path class="st0" d="M508.7,128.7c0-1.1,0-2-0.1-2.9h1.5l0.1,1.8h0.1c0.4-1.2,1.4-2,2.5-2c0.2,0,0.3,0,0.5,0.1v1.6
			c-0.2,0-0.3-0.1-0.6-0.1c-1.2,0-2,0.9-2.2,2.1c0,0.2-0.1,0.5-0.1,0.8v4.9h-1.6V128.7z"/>
		<path class="st0" d="M523,134c0-0.7,0.5-1.2,1.1-1.2c0.7,0,1.1,0.5,1.1,1.2c0,0.7-0.4,1.2-1.1,1.2C523.4,135.2,523,134.7,523,134z
			"/>
		<path class="st0" d="M536.3,134c0-0.7,0.5-1.2,1.1-1.2c0.7,0,1.1,0.5,1.1,1.2c0,0.7-0.4,1.2-1.1,1.2
			C536.8,135.2,536.3,134.7,536.3,134z"/>
		<path class="st0" d="M549.7,134c0-0.7,0.5-1.2,1.1-1.2c0.7,0,1.1,0.5,1.1,1.2c0,0.7-0.4,1.2-1.1,1.2
			C550.2,135.2,549.7,134.7,549.7,134z"/>
	</g>
	<g>
		<g>
			<line class="st1" x1="182.9" y1="108.8" x2="555.2" y2="108.8"/>
			<g>
				<rect x="182.3" y="105" class="st0" width="1.2" height="7.6"/>
			</g>
			<g>
				<rect x="554.6" y="105" class="st0" width="1.2" height="7.6"/>
			</g>
		</g>
	</g>
</g>
<g>
	<path class="st0" d="M102.4,75.3C102.4,75.3,102.4,75.4,102.4,75.3C102.4,75.3,102.4,75.3,102.4,75.3L102.4,75.3z"/>
	<g>
		<g>
			
				<ellipse transform="matrix(0.9747 -0.2237 0.2237 0.9747 -18.5853 22.881)" class="st0" cx="91.7" cy="93.5" rx="76.5" ry="76.5"/>
			<g>
				<g>
					<g>
						<path class="st0" d="M173.5,109.5c-0.8,3.2-1.6,5.3-2.3,6.7c-0.7,1.4-1.2,2.1-1.7,2.6c-1,0.9-1.6,0.9-2.9,2.9
							c0.3-1,0.6-2.1,0.9-3.1c0.3-1,0.5-2.1,0.7-3.1c1.4-4,2.8-9.2,3.7-13.2c0.4-2,0.7-3.7,1.1-4.7c0.3-1,0.5-1.4,0.8-0.7
							c0.1,0.4,0.3,2.2,0.4,4.5C174.3,103.8,174.2,106.7,173.5,109.5z"/>
						<path class="st0" d="M170.3,94.3c0,1.2-0.2,1.4-0.2,2.5l-1.2-3.4L170.3,94.3z"/>
						<path class="st0" d="M163.3,130.6l-0.7,1.4l-0.7,1.3c-0.5,0.9-0.9,1.8-1.5,2.6c-0.4,0.6-0.2,0.1,0-0.5
							c0.3-0.6,0.6-1.4,0.4-1.3c-0.6,0.9-1.3,1.8-2,2.7l-1,1.3l-1.1,1.3c2.8-3.6,3.7-5.7,4.4-6.9
							C161.8,131.4,162.1,131.1,163.3,130.6z"/>
						<path class="st0" d="M99.5,166.8c-2.1-0.2-1.3-0.6,0.1-1c1.5-0.5,3.6-1,4.4-1.5c0.8-0.1,1.7-0.2,2.4-0.2
							c0.7-0.1,1.3-0.1,1.8,0c0.9,0.1,1,0.4-0.2,1c-1.1,0.3-2.1,0.5-2.9,0.6c-0.8,0.2-1.5,0.4-2.2,0.5
							C101.6,166.4,100.6,166.7,99.5,166.8z"/>
						<g>
							<path class="st0" d="M141,157.8c0.3-0.6,1.1-1.5,2.2-2.6c1.1-1.1,2.4-2.3,3.6-3.6c0.6-0.6,1.2-1.2,1.7-1.7
								c0.5-0.6,0.9-1.1,1.2-1.5c0.7-0.9,0.9-1.4,0.5-1.4c-0.8,0.1-1.5,0.1-2.8,1c-0.6,0.9-1.4,1.7-2.1,2.5
								c-0.7,0.8-1.4,1.6-2.2,2.4c-1.6,1.3-2.7,2.1-3.5,2.6c-0.8,0.5-1.2,0.7-1.4,0.8c-0.3,0,0.3-0.7,1.1-1.6
								c0.8-0.9,1.7-1.9,1.7-2.4c0.1-0.4-0.5-0.2-2.8,1.2c-0.9,0.7-1.6,1.3-2.1,1.7c-0.5,0.4-0.9,0.8-1.3,1.1
								c-4,3.4-2.6,2.8,0.3,1.7c-6.4,4.3-9.1,4.4-10.7,4.3c-0.8-0.1-1.5-0.2-2.4-0.2c-0.4,0-0.9,0.1-1.6,0.3
								c-0.6,0.2-1.4,0.4-2.3,0.8c-5.1,2.1-6,2.8-5.8,3.5c0.2,0.7,1.4,1,0.2,1.8c-0.2-1-5.4-0.4-12.5-0.2c-3.6,0-7.6,0-11.7-0.4
								c-4.1-0.4-8.3-1.1-12.3-1.9c-3.7-0.5-7.5-1.7-11.2-3.1c-3.7-1.5-7.4-3.3-10.9-5.6c-7.1-4.5-13.6-10.2-19.9-16.7
								c-2.3-3.1-4.8-6.8-6.9-11c-2.2-4.2-4.1-8.8-5.5-13.6c0.1,0,0.2-0.1,0.3-0.1c-0.2-0.2-0.3-0.3-0.4-0.3
								c-0.4-3.7-2-9.5-2.5-14.9c-0.1-1.3-0.2-2.6-0.3-3.9c0-1.2,0-2.3,0-3.3c0.2-2,0.5-3.3,1.1-3.7L20,88c0.1-2.2,0.3-3.3,0.4-3.7
								c0.1-0.5,0.3-0.3,0.4-0.1c0.2,0.5,0.5,1.4,1-1c0.4-4,1.9-8.4,3.4-12.2c1.5-3.8,3-7.1,3-9.3c0.4-0.5,0.1,0.3,0.5-0.2
								c0.4-1,0.9-2,1.4-2.9c0.5-1,1-1.9,1.5-2.8c-0.2-0.6,0.1-2-1-1.4c0.8-1.3,1.1-2.7,2.6-4.4c3.4-4.3,1.2,0.1,2.7-1.2
								c4-5.5,9.4-10.7,15.4-14.8c3-2,6.2-3.8,9.4-5.2c3.2-1.4,6.5-2.4,9.6-3.2c0.3,0.8,3.9,0,8.2-0.6c4.4-0.7,9.5-1.2,12.6-1.2
								c3.1,0.4,6.2,0.6,9.4,1c1.6,0.1,3.2,0.4,4.7,0.6c0.8,0.1,1.6,0.3,2.3,0.4c0.8,0.1,1.6,0.2,2.3,0.4c6.1,1.2,11.9,3.2,15.6,6.2
								c-2.7-0.8-6-2.5-9-3.6c-1.5-0.6-2.9-1-3.9-1.3c-1.1-0.3-1.9-0.3-2.2-0.1c0.7,0.4,1.5,0.8,2.2,1.2c2.6,1,5.9,2.6,8.8,4.2
								c1.5,0.8,2.9,1.5,4.1,2.1c1.3,0.6,2.3,1.1,3.2,1.3c-0.6-0.6-1-1-1.3-1.4c-0.3-0.4-0.6-0.7-0.7-1c-0.3-0.5-0.5-1-0.8-1.4
								c2.4,1,3,0.8,5.8,2.5c1,0.7,2,1.3,2.9,2.1c0.9,0.7,1.7,1.4,2.4,2.1c1.3,1.4,2.1,2.4,1.8,2.7c-2.1-1.5-4-3.5-6-4.8
								c-0.3,0.1-0.1,0.4,0.3,0.9c0.5,0.5,1.2,1.3,2.1,2c0.8,0.8,1.7,1.7,2.5,2.5c0.8,0.8,1.5,1.6,1.9,2.1c-1-2.5,1-1.6,2.2-1.4
								c0.6,0.1,1,0.1,0.7-0.7c-0.3-0.7-1.3-2.2-3.7-4.7c2,1.5,4,3.1,5.8,4.9c1.4,0.7,1.1-0.1,0-1.7c-0.6-0.8-1.3-1.7-2.2-2.7
								c-0.9-1-1.9-2-2.8-2.9c-1-0.9-1.9-1.8-2.7-2.6c-0.8-0.7-1.4-1.3-1.7-1.7c-0.6-0.8,0.1-0.8,3.3,0.8c1.5,0.4,0.4-1.3,4.4,1.3
								c-0.7-1.2-2.2-2.5-3.8-3.7c-1.6-1.1-3.2-2.1-4.2-2.5c-1.1-1.7-5.5-4.4-9.8-6.5c-2.1-1.1-4.3-1.9-5.8-2.8
								c-1.6-0.7-2.6-1.4-2.6-1.9c-1.7-0.4-3.4-0.6-4.9-1c-1.5-0.3-3-0.6-4.3-0.9c-1.4-0.3-2.7-0.6-4-0.9c-1.3-0.3-2.5-0.6-3.8-0.8
								c-5-1-10-2-16.6-1.6c-2.1,0.2-3.7,0.4-5,0.6c-1.3,0.2-2.2,0.4-2.9,0.6c-1.4,0.4-1.7,0.7-1.6,0.9c0.1,0.5,1.7,0.8-0.4,1.9
								c-2,0.3-4,0.8-5.9,1.4c-1.9,0.7-3.7,1.3-5.4,2.1c-3.3,1.5-6.1,3.4-8.1,4.7c-3.8,2.1-6.5,3-4.1,1.1
								c-14.8,7.7-27.2,20.7-34.5,36.3c-1.8,3.9-3.4,7.9-4.5,12.1c-1.2,4.2-2,8.4-2.5,12.7C7.9,89,7.7,93.3,7.8,97.6
								c0.2,4.3,0.7,8.6,1.5,12.8c0.8,7,3.1,13.5,6,19.6c3,6.1,6.4,11.8,9.9,18l-1.1-2.1c0-0.4,1.2,0.9,2.1,2
								c-1.1-2.1-2.1-4.1-2.9-6.1c1.1,1.7,2.3,3.4,3.5,5c1.3,1.6,2.6,3.2,4,4.6c2.1,1.1,6.2,5.1,10.9,8.7c4.7,3.6,10,6.6,13,7
								c1.2,0.7,2.4,1.2,3.4,1.7c1,0.5,2,1,2.9,1.3c0.9,0.4,1.7,0.7,2.4,1.1c0.7,0.3,1.4,0.6,2,0.8c1.2,0.5,2.2,0.9,3.1,1.2
								c0.9,0.3,1.6,0.6,2.4,0.9c0.8,0.3,1.6,0.5,2.5,0.8c0.5,0.1,0.9,0.3,1.5,0.5c0.5,0.1,1.1,0.3,1.8,0.5c0.6,0.2,1.4,0.3,2.1,0.5
								c0.8,0.1,1.7,0.3,2.6,0.5c1,0.2,2,0.3,3.2,0.5c1.2,0.1,2.5,0.3,3.9,0.4c6.1-0.1,12.8-0.9,19.5-2.5c6.7-1.6,13.5-4,20-7
								c4.7-2.2,9-4.2,8.5-3.4c2.7-1.7,5.7-4,8.7-6.4c2.9-2.5,5.8-5.1,8-7.5c2.2-2.7,3.7-4.8,4.6-6.3c1-1.5,1.3-2.5,1.4-2.9
								c0.1-0.4-0.2-0.4-0.7,0.1c-0.3,0.2-0.6,0.5-0.9,0.9c-0.4,0.4-0.8,0.8-1.3,1.3c-1.9,2-4.7,4.8-7.5,7.4
								C146,154,143,156.3,141,157.8z"/>
							<path class="st0" d="M57.8,33.6c-0.3,1.2,4.8-1.2,6.7-1.4c0.7-0.4,1.4-0.9,2.1-1.2c0.7-0.3,1.3-0.6,1.8-0.9
								c0.5-0.3,1-0.5,1.3-0.7c0.7-0.4,1.1-0.7,1.2-1c0.2-0.5-0.8-0.6-2.8-0.2c-0.3,0.3-0.9,0.7-1.7,1.1c-0.8,0.4-1.8,0.9-2.8,1.4
								c-1,0.5-2.1,1-3.2,1.5c-0.5,0.2-1,0.5-1.5,0.7C58.6,33.2,58.2,33.4,57.8,33.6z"/>
							<path class="st0" d="M27,71.9l-0.6-1.1l-0.5,1.9c-0.2,0.6-0.3,1.3-0.5,1.9c-0.1,0.6-0.3,1.2-0.4,1.9l-0.4,1.9
								c0.3,0,0.7-1,1.1-2.2C26.1,74.9,26.5,73.3,27,71.9z"/>
							<path class="st0" d="M159.2,59.7c-1.7-3.6-3-6.1-4.4-8.7c-1.5-2.5-3.1-5-6-8.1l-0.3,2.3c4.7,6.7,8.2,14.5,11.4,23.4
								c1.9,2.7,1.3-0.1,0.3-3.3c-0.5-1.6-1.1-3.3-1.4-4.4C158.5,59.8,158.5,59.2,159.2,59.7z"/>
							<path class="st0" d="M152.2,43.1c2.7,2.7,5.2,5.9,7.4,9.3c2.1,3.5,3.9,7.2,5.4,10.9c1.5,3.7,2.6,7.5,3.7,11.1
								c0.3,0.9,0.5,1.8,0.8,2.7c0.2,0.9,0.5,1.8,0.7,2.6c0.5,1.7,0.9,3.4,1.5,5c1.8-2,1-8.8-1.7-15.9c-1.3-3.5-3.1-7.1-4.8-10.3
								c-1.7-3.2-3.4-6.1-4.5-8.4c-0.5-0.7-1-1.3-1.4-1.9c-0.5-0.6-1-1.2-1.4-1.7c-0.5-0.5-0.9-1.1-1.4-1.6c-0.5-0.5-1-1-1.4-1.6
								c-1.9-2.1-4.1-4.3-7.2-7c-2.5-1.8-2-0.9-0.6,0.8c0.7,0.9,1.6,2,2.5,3C150.7,41.3,151.5,42.3,152.2,43.1z"/>
							<path class="st0" d="M170.1,89c0.1,1.7,0.3,3.6,0.4,4.5c0.4,1.2,0.6-1.9,0.8-3.4C171.3,88.4,170,84.2,170.1,89z"/>
						</g>
					</g>
				</g>
			</g>
		</g>
		<g>
			<g>
				<g>
					<g>
						<path class="st2" d="M20.1,79.5c0.6-2.8,1.1-4.7,1.5-6c0.4-1.3,0.7-2,0.9-2.5c0.4-1,0.5-1.1,1.3-3.1c-0.4,0.9-0.6,1.8-0.9,2.8
							c-0.3,0.9-0.6,1.9-0.8,2.8C21,77.2,20,82,19.6,85.6c-0.2,1.8-0.3,3.3-0.4,4.2C19.1,90.7,19,91,19,90.4c0-0.4,0-1.9,0.2-4
							C19.3,84.4,19.6,81.9,20.1,79.5z"/>
						<path class="st2" d="M19.5,92.7c0-1.1,0-1.3,0.1-2.3l0.1,3.1L19.5,92.7z"/>
						<path class="st2" d="M27.3,60.1l0.6-1.2l0.7-1.2c0.5-0.8,0.9-1.6,1.4-2.3c0.3-0.5,0.1-0.1-0.2,0.4c-0.3,0.5-0.6,1.2-0.6,1.1
							c0.5-0.9,1.1-1.7,1.6-2.6l0.8-1.3l0.9-1.2c-2.4,3.4-3.4,5.2-4,6.2C28,59,27.8,59.4,27.3,60.1z"/>
						<path class="st2" d="M84.2,22.3c2-0.1,1.3,0-0.2,0.2c-1.5,0.2-3.6,0.5-4.4,0.8c-0.8,0.1-1.6,0.3-2.3,0.4
							c-0.7,0.1-1.3,0.3-1.7,0.3c-0.8,0.1-0.9,0.1,0.4-0.2c1.1-0.3,2-0.4,2.8-0.6c0.8-0.2,1.5-0.3,2.1-0.4
							C82.1,22.6,83.1,22.5,84.2,22.3z"/>
						<g>
							<path class="st2" d="M47.6,35.8c-0.4,0.4-1.3,1.1-2.3,2c-1,0.9-2.3,2-3.4,3.1c-0.6,0.5-1.1,1-1.6,1.5
								c-0.5,0.5-0.9,0.9-1.2,1.3c-0.7,0.7-1,1.1-0.8,0.9c0.4-0.3,0.8-0.6,1.8-1.6c0.7-0.7,1.4-1.4,2.1-2.1c0.7-0.7,1.4-1.4,2.2-2
								c1.4-1.2,2.5-2,3.1-2.5c0.7-0.5,1-0.8,1.2-0.8c0.2-0.1-0.5,0.4-1.3,1.1c-0.8,0.7-1.8,1.5-2,1.7c-0.2,0.3,0.2-0.1,2.2-1.6
								c0.8-0.7,1.5-1.2,2-1.5c0.5-0.4,0.9-0.7,1.3-1c4-2.8,2.8-2,0.4-0.6c6-3.9,8.1-4.5,9.4-5.1c0.7-0.2,1.1-0.4,1.9-0.7
								c0.7-0.3,1.8-0.7,3.6-1.4c4.9-1.9,5.9-2.1,5.9-2.2c0-0.1-1,0.1,0.2-0.3c0,0.1,1.1-0.2,3.1-0.6c0.5-0.1,1.1-0.2,1.6-0.3
								c0.6-0.1,1.3-0.2,1.9-0.3c1.4-0.2,2.9-0.4,4.6-0.6c3.4-0.3,7.2-0.5,11.2-0.3c4,0.2,8.1,0.8,11.9,1.6
								c3.6,0.7,7.2,1.8,10.7,3.2c3.6,1.4,7.2,3.1,10.6,5.2c6.9,4.1,13.4,9.6,19,16.3c2.3,2.9,4.8,6.4,7,10.4
								c2.2,4,4.2,8.5,5.7,13.1c0,0,0,0,0,0c0.1,0.2,0.1,0.4,0.2,0.3c1,3.4,2.4,9.2,2.9,14.5c0.1,1.3,0.2,2.6,0.3,3.8
								c0,1.2,0,2.3,0.1,3.2c-0.1,1.9-0.2,3.3-0.2,3.7l-0.1,1.7c-0.1,2.2-0.3,3.2-0.4,3.7c-0.1,0.5-0.1,0.4-0.1,0.1
								c0-0.5,0.1-1.4-0.3,1.1c-0.5,4-1.7,8.5-3,12.4c-1.3,3.9-2.9,7.2-3.7,9.1c-0.3,0.6,0.1-0.2-0.3,0.4c-0.5,1-1,1.9-1.5,2.9
								c-0.5,0.9-1,1.9-1.6,2.8c-0.2,0.4-0.8,1.5-0.2,0.7c-0.8,1.3-1.5,2.4-2.8,4.1c-3.3,4.3-0.5,0.4-1.8,1.9
								c-4.2,5.3-9.6,10.4-15.5,14.4c-3,2-6.1,3.8-9.3,5.3c-3.2,1.5-6.4,2.7-9.4,3.6c0-0.1-0.9,0.2-2.4,0.5
								c-0.4,0.1-0.8,0.2-1.2,0.3c-0.4,0.1-0.9,0.2-1.4,0.3c-1,0.2-2,0.5-3.1,0.6c-4.4,0.8-9.7,1.3-12.8,1.2
								c-6.2-0.1-12.9-0.8-19.1-2.5c-6.1-1.6-11.7-4-15.8-6.4c2.5,1.3,5.9,3,9,4.1c1.5,0.6,2.9,1,4,1.4c1.1,0.3,1.9,0.5,2.2,0.5
								c-0.8-0.3-1.6-0.5-2.4-0.8c-2.8-0.9-6.2-2.3-9.3-3.9c-1.5-0.8-3-1.5-4.2-2.3c-1.3-0.7-2.3-1.3-3-1.8c0.6,0.5,1.2,0.8,1.6,1.1
								c0.4,0.3,0.7,0.5,1,0.6c0.5,0.3,0.8,0.5,1.2,0.8c-2.3-1.2-2.7-1.4-5.4-3.2c-1-0.7-2-1.4-2.9-2.1c-0.9-0.7-1.8-1.4-2.5-2
								c-1.4-1.3-2.4-2.1-2.3-2.2c2,1.7,4.1,3.5,6,4.9c0.2,0.1-0.1-0.1-0.6-0.6c-0.6-0.5-1.4-1.1-2.3-1.8c-0.9-0.7-1.8-1.6-2.7-2.4
								c-0.9-0.8-1.6-1.5-2.1-2c1.7,1.8,0.1,0.5-0.7-0.1c-0.4-0.3-0.6-0.4-0.1,0.1c0.5,0.5,1.6,1.8,4.2,4c-1.9-1.6-3.7-3.2-5.4-5
								c-1-1-0.5-0.4,0.7,0.9c0.6,0.6,1.4,1.4,2.3,2.3c0.9,0.8,1.9,1.7,2.9,2.6c1,0.8,1.9,1.6,2.7,2.2c0.8,0.6,1.5,1.1,1.8,1.4
								c0.7,0.5,0.2,0.3-2.5-1.5c-1.1-0.8,0.2,0.5-3.2-2.3c0.9,0.9,2.3,2,3.7,3c1.4,1,2.8,2,3.7,2.5c1.3,1,5.3,3.4,9.2,5.2
								c1.9,0.9,3.9,1.7,5.3,2.3c1.5,0.5,2.4,0.9,2.5,1c1.5,0.5,2.9,0.8,4.3,1.2c1.4,0.3,2.6,0.6,3.9,0.9c1.2,0.2,2.4,0.5,3.6,0.6
								c1.1,0.2,2.3,0.3,3.4,0.5c4.5,0.5,8.8,0.7,14.6,0.2c1.8-0.2,3.3-0.4,4.4-0.6c1.1-0.2,2-0.4,2.6-0.5c0.6-0.1,1-0.2,1.2-0.3
								c0.2-0.1,0.3-0.1,0.3-0.1c0-0.1-1.4,0.1,0.7-0.4c7.2-1.4,13.8-4.6,17.6-6.7c3.5-1.9,5.6-3.1,3.3-1.7
								c12.9-7.5,23.4-19.2,29.5-33c6.2-13.7,7.8-29.4,4.8-44.1c-1.1-6-3.1-11.6-5.6-16.9c-2.5-5.3-5.7-10.2-9.3-15l1.2,1.6
								c0.1,0.3-0.8-1-1.6-1.9c1.2,1.6,2.3,3.1,3.3,4.7c-1-1.5-2.1-2.9-3.2-4.3c-1.2-1.3-2.3-2.7-3.5-4c-1.4-1.4-5-4.9-9.2-8
								c-4.1-3.1-8.8-5.8-11.1-6.7c-1.1-0.6-2.1-1-3-1.4c-0.9-0.4-1.8-0.8-2.6-1.1c-0.8-0.3-1.5-0.6-2.1-0.9
								c-0.7-0.2-1.2-0.4-1.8-0.6c-1.1-0.4-2-0.7-2.8-0.9c-0.8-0.2-1.5-0.4-2.2-0.6c-0.7-0.2-1.4-0.3-2.2-0.5
								c-0.4-0.1-0.8-0.2-1.3-0.3c-0.5-0.1-1-0.2-1.6-0.3c-0.6-0.1-1.2-0.2-1.9-0.4c-0.7-0.1-1.5-0.2-2.3-0.3
								c-0.8-0.1-1.8-0.2-2.8-0.3c-1-0.1-2.2-0.2-3.4-0.2c-5.3-0.1-11.1,0.3-17,1.5c-5.9,1.2-11.9,3.2-17.6,6c-4.1,2-7.6,4.2-7,3.7
								c-2.3,1.4-5,3.4-7.6,5.5c-2.6,2.2-5,4.5-6.9,6.6c-2,2.2-3.4,4-4.3,5.2c-1,1.2-1.4,2-1.6,2.3c-0.2,0.3-0.1,0.2,0.3-0.3
								c0.2-0.2,0.4-0.5,0.7-0.9c0.3-0.4,0.6-0.8,1-1.3c1.5-1.9,3.9-4.5,6.3-6.9C43.1,39.3,45.8,37.2,47.6,35.8z"/>
							<path class="st2" d="M126.6,155.1c0.7-0.5-4.4,2.2-6.2,2.9c-0.8,0.4-1.5,0.7-2.3,1c-0.7,0.3-1.4,0.6-2,0.8
								c-0.6,0.2-1.1,0.4-1.5,0.5c-0.8,0.3-1.3,0.5-1.4,0.6c-0.3,0.2,0.6-0.1,2.6-0.7c0.4-0.2,1-0.4,1.8-0.8
								c0.8-0.3,1.9-0.8,2.9-1.3c1.1-0.5,2.2-1,3.3-1.6C124.9,156,125.8,155.5,126.6,155.1z"/>
							<path class="st2" d="M158.8,115.8l-0.1,0.9l0.6-1.9c0.2-0.6,0.4-1.3,0.5-1.9c0.2-0.6,0.4-1.3,0.5-1.9l0.4-1.9
								c-0.1,0.1-0.3,1.1-0.7,2.4C159.7,112.7,159.3,114.4,158.8,115.8z"/>
							<path class="st2" d="M27.5,125.6c1.7,3.4,3.1,5.7,4.6,8c1.5,2.2,3.1,4.6,5.8,7.5l-0.8-1.3c-4.9-6-9.2-13.2-12.5-21.9
								c-1.1-2.9-0.4-0.2,0.8,2.8c0.6,1.5,1.3,3.1,1.7,4.1C27.7,125.8,27.9,126.3,27.5,125.6z"/>
							<path class="st2" d="M36.2,139.7c-2.3-2.7-4.4-5.6-6.4-8.8c-1.9-3.2-3.6-6.5-5-9.9c-1.4-3.4-2.5-6.9-3.3-10.2
								c-0.9-3.3-1.4-6.5-1.9-9.5c-0.1,1.7,0.6,7.6,2.7,14c1,3.2,2.4,6.4,3.8,9.4c1.4,2.9,2.9,5.5,4.1,7.4c0.4,0.6,0.8,1.2,1.2,1.8
								c0.4,0.6,0.8,1.1,1.2,1.6c0.4,0.5,0.8,1,1.1,1.5c0.4,0.5,0.8,1,1.2,1.5c1.6,2,3.4,4,6.1,6.7c2,1.8,1.4,1.2,0-0.2
								c-0.7-0.7-1.6-1.7-2.5-2.6C37.6,141.4,36.8,140.4,36.2,139.7z"/>
							<path class="st2" d="M19.6,97.6c-0.1-1.5-0.1-3.3-0.2-4.2c-0.1-1.1-0.1,1.8-0.1,3.1C19.4,98.1,19.9,102,19.6,97.6z"/>
						</g>
					</g>
				</g>
			</g>
		</g>
	</g>
	<g>
		<path class="st0" d="M104,77.7c-0.3-0.1-0.7-0.3-1.1-0.5c0.3-0.2,0.4-0.3,0.6-0.4c0.7-0.2,1-0.5,0.4-1.2c-0.5-0.5-0.1-1.7,0.9-2.6
			C104.5,74.8,104.3,76.3,104,77.7C104,77.8,104,77.7,104,77.7z"/>
		<path class="st0" d="M106.4,65.8c-0.2,1.2-0.3,2.2-0.5,3.3c-0.2-0.1-0.6-0.1-0.6-0.2C105.3,67.8,105.4,66.8,106.4,65.8z"/>
		<path class="st0" d="M94.3,94.1c0.4,0.2,0.7,0.3,0.9,0.3c-0.2,0.6-0.4,1.2-0.6,1.8c-0.1,0-0.1,0-0.2,0
			C94.4,95.6,94.3,94.9,94.3,94.1z"/>
		<path class="st0" d="M101.6,92.5c-0.1,0.4-0.1,0.8-0.2,1.3c-0.5,0.1-0.5,0.1-0.7-1.4C101.1,92.5,101.4,92.5,101.6,92.5
			C101.7,92.5,101.6,92.5,101.6,92.5z"/>
		<path class="st0" d="M101.6,92.5C101.6,92.5,101.7,92.5,101.6,92.5c-0.3-0.4-1.2-0.7-0.6-1.5C101.9,91.3,102.1,91.8,101.6,92.5z"
			/>
	</g>
	<g>
		<path class="st3" d="M106.4,129c0.1-0.3,0.3-0.5,0.5-0.7c-0.1,0.5-0.2,1.1-0.3,1.6c-0.1,0.5-0.3,1-0.5,1.4
			c-0.3,0.4-0.6,0.7-0.9,1.1c-0.3,0.4-0.6,0.7-1,1c-0.3,0.2-0.6,0.4-0.9,0.5c-0.4,0.2-0.7,0.4-1,0.6c-0.3,0.2-0.6,0.4-0.9,0.5
			c-0.4,0.1-0.7,0.2-1,0.3c-0.3,0.1-0.6,0.2-1,0.2c-0.8,0.1-1.5,0.2-2.2,0.2c-0.7,0.1-1.4,0.1-2.2,0.2c-0.1,0-0.2,0-0.3,0
			c-0.1,0-0.3,0-0.3,0c-0.3-0.1-0.5-0.1-0.6,0.1c-0.1,0.2-0.2,0.3-0.4,0.3c-0.2,0-0.4,0-0.7-0.1c-0.3-0.1-0.6-0.1-1-0.2
			c-0.4,0-0.7-0.2-0.9-0.6l-0.1-0.1c-0.2,0.1-0.4,0.2-0.5,0.1c-0.2,0-0.4-0.1-0.5-0.2c-0.2-0.1-0.4-0.2-0.5-0.3
			c-0.2-0.1-0.4-0.1-0.5-0.1c-0.2,0-0.5,0-0.7-0.1c-0.3-0.1-0.5-0.3-0.8-0.4c-1.3-0.7-2.6-1.4-3.9-2.1c-1.3-0.8-2.5-1.6-3.6-2.7
			c-0.6-0.5-1.3-1.1-1.9-1.6c-0.7-0.5-1.3-1-1.9-1.6c-1.3-1.2-2.6-2.5-3.8-3.8c-1.2-1.3-2.4-2.6-3.6-3.9c-0.5-0.5-0.9-1.1-1.3-1.7
			c-0.4-0.6-0.9-1.1-1.3-1.7c-0.5-0.6-0.9-1.3-1.3-1.9c-0.4-0.6-0.8-1.3-1.3-1.9c-0.6-1.1-1.3-2.2-1.9-3.3c-0.6-1.1-1.3-2.2-1.8-3.3
			c-0.2-0.3-0.4-0.6-0.5-0.9c-0.2-0.3-0.3-0.6-0.4-0.9c-0.1-0.2-0.4-0.7-0.8-1.5c-0.4-0.8-0.7-1.6-1-2.5l-0.1,0.3
			c0-0.1-0.1,0-0.2,0.3s-0.1,0.4-0.2,0.3c0,0.1,0,0.2,0.2,0.2c0.2,0,0.3,0.1,0.2,0.2c-0.1,0.2-0.2,0.4-0.2,0.6
			c-0.1,0.2-0.1,0.4-0.2,0.5c0,0-0.1,0.1-0.3,0.2c-0.1,0.1-0.2,0.2-0.3,0.3c-0.1,0.1-0.3,0.3-0.4,0.4l0.5,0.2c0,0,0.1,0.1,0.2,0.2
			c0.1,0.1,0.1,0.1,0,0.2c0,0.2-0.1,0.3-0.3,0.3c-0.3,0-0.5,0-0.6,0.2c-0.1,0.2-0.1,0.4-0.2,0.5c-0.1,0.3-0.2,0.6-0.3,0.9
			c-0.1,0.3-0.2,0.6-0.1,0.9c0.1,0.4,0,0.7-0.2,0.9c-0.2,0.2-0.3,0.5-0.3,0.8c0,0.1-0.1,0.1-0.2,0.2c-0.1,0-0.2,0.1-0.3,0.1
			c-0.1,0-0.2,0-0.2-0.1c-0.1,0-0.2-0.1-0.3-0.2l-0.2,2.1c0.1,0,0.2,0.1,0.3,0.1c0.1,0,0.2,0.1,0.5,0.1c-0.5,0.2-0.9,0.4-1.2,0.7
			c-0.3,0.3-0.2,0.7,0.2,1.2c-0.5,0.4-0.8,0.8-0.9,1.2c-0.1,0.4,0.1,0.8,0.5,1.1h-0.4c-0.1,0-0.2,0-0.3,0c-0.1,0-0.2,0-0.3,0
			c0,0.1,0.1,0.2,0.1,0.3c0,0.1,0,0.2,0.1,0.3c0.2,0.4,0.2,0.7-0.1,1.1l-0.2-0.3l-0.1-0.3l-0.1,0.1l-0.3,1.3h0.6
			c0,0.2,0.1,0.4,0.1,0.6c0,0.2,0,0.4,0,0.6c0,0.2-0.2,0.4-0.5,0.5c-0.1,0.1-0.2,0.1-0.4,0.1c-0.2,0-0.3,0-0.4,0.1v0.2h1
			c0.1,0.2,0.1,0.4,0.2,0.5c0,0.2,0.1,0.3,0.2,0.4c0.1,0.3,0,0.5-0.1,0.6c-0.2,0.1-0.3,0.2-0.5,0.4l-0.5,0.3l0.5,0.5l-0.3,0.2l0.2,1
			v0.3c-0.2,0.1-0.3,0.3-0.3,0.4c0,0.2,0,0.3-0.1,0.5c0,0.5,0,0.8,0.1,1.2c0,0.2,0,0.4-0.1,0.8l-0.2,1.6c-0.6,0-1.1-0.2-1.4-0.5
			c-0.3-0.3-0.6-0.7-0.9-1.2c-0.2-0.5-0.4-0.9-0.5-1.3c-0.2-0.4-0.3-0.9-0.4-1.3c-0.1-0.6-0.2-1.2-0.3-1.8c-0.1-0.6-0.1-1.2-0.1-1.8
			c0-0.8,0-1.6,0.1-2.3c0.1-0.8,0.1-1.6,0.2-2.3c0-0.2,0-0.5,0-0.7c0-0.2,0-0.5,0.1-0.7c0.2-0.6,0.4-1.3,0.4-2
			c0-0.7,0.1-1.4,0.4-2.1c0.2-0.8,0.4-1.5,0.5-2.2c0.1-0.7,0.2-1.5,0.4-2.2c0.1-0.3,0.2-0.5,0.2-0.8c0.1-0.3,0.1-0.5,0.2-0.8
			c0-0.2,0.1-0.4,0.1-0.6c0-0.2,0.1-0.4,0.2-0.6c0.1-0.2,0.2-0.4,0.2-0.6c0-0.2,0.1-0.4,0.1-0.6c0-0.1,0-0.2,0-0.4
			c0-0.2,0-0.3-0.1-0.3c-0.4-0.2-0.7-0.3-1.1-0.3c-0.4,0-0.8,0.1-1.2,0.1c-0.4,0-0.8,0.1-1.1,0.1c-0.5,0-1,0.1-1.5,0.1
			c-0.5,0-1,0-1.5-0.1c-0.5-0.1-1-0.2-1.5-0.3c-0.5-0.1-1-0.3-1.5-0.5c-0.1,0-0.2-0.1-0.3-0.3c-0.1-0.2-0.2-0.3-0.3-0.4l-1.9-1.4
			c-0.5-0.3-0.9-0.6-1.3-0.9c-0.4-0.2-0.8-0.5-1.3-0.8l-0.2-0.2c-0.2-0.5-0.5-1-0.8-1.4c-0.3-0.4-0.6-0.9-1-1.3
			c-0.2-0.2-0.3-0.3-0.3-0.4c0.1-0.5,0-0.9-0.3-1.3c-0.3-0.3-0.5-0.7-0.6-1.1c-0.1-0.2-0.2-0.4-0.2-0.6c-0.1-0.2-0.1-0.4-0.1-0.6
			c0-0.1,0.1-0.3,0.2-0.4c0.1-0.2,0.2-0.3,0.4-0.4c0,0,0.1-0.1,0.2,0c0.1,0,0.2,0.1,0.2,0.1c0.1,0.2,0.3,0.4,0.4,0.6
			s0.2,0.4,0.3,0.6c0.1,0.5,0.3,0.9,0.5,1.2c0.3,0.3,0.6,0.5,0.9,0.8c0.2,0.1,0.4,0.3,0.6,0.4c0.2,0.1,0.5,0.1,0.8,0
			c0.1-0.1,0.3-0.1,0.3,0c0.5,0.5,1,0.7,1.5,0.7c0.6,0,1.1,0.1,1.6,0.2c0.6,0.2,1.3,0.3,1.9,0.2c0.6-0.1,1.3-0.1,1.9-0.1
			c0.7,0,1.4,0,2-0.1c0.7-0.1,1.3-0.2,1.9-0.4c1.2-0.2,2.3-0.5,3.3-0.8c0.6-0.2,1.3-0.5,2.1-1c0.1-0.1,0.2-0.2,0.3-0.4
			c0.1-0.2,0.1-0.3,0.2-0.5l1.2-3.3c0.2-0.6,0.5-1.3,0.7-2c0.2-0.7,0.5-1.3,0.8-2c0.2-0.5,0.5-1.1,0.7-1.6c0.2-0.5,0.5-1.1,0.7-1.6
			l1.5-3.6l2.1-4.7l1.4-3.1c0.3-0.6,0.5-1.2,0.8-1.8c0.2-0.6,0.5-1.2,0.8-1.8c0.3-0.6,0.6-1.2,0.9-1.7c0.3-0.5,0.7-1.1,1-1.6
			c0.2-0.3,0.4-0.6,0.5-0.9c0.2-0.3,0.3-0.6,0.4-0.9c0.1-0.5,0.4-0.9,0.7-1.2c0.3-0.3,0.7-0.5,1-0.8c0.5-0.3,0.9-0.3,1.4-0.1
			c0.2,0.1,0.4,0.2,0.6,0.3c0.2,0,0.4,0.1,0.6,0.1c0.4-0.1,0.7,0,1,0.2c0.3,0.2,0.6,0.4,0.9,0.4c0.3,0.1,0.4,0.2,0.4,0.2
			c0,0,0.2,0.1,0.4,0.3c0.5,0.2,0.8,0.5,0.8,1c0.1,0.1,0.2,0.2,0.1,0.2c0.3,0.3,0.4,0.5,0.3,0.8c-0.1,0.3-0.2,0.5-0.2,0.8
			c0,0.4,0,0.6-0.1,0.7c-0.1,0.1-0.2,0.3-0.2,0.5c-0.1,0.6-0.3,1.1-0.6,1.5c-0.3,0.4-0.6,0.8-0.9,1.1c0,0.1-0.1,0.1-0.2,0.2
			c-0.1,0-0.1,0.1-0.1,0.1c0,0.5-0.2,0.9-0.5,1.2c-0.3,0.3-0.5,0.7-0.8,1.1c-0.2,0.4-0.3,0.7-0.4,1.1c-0.1,0.4-0.3,0.8-0.4,1.1
			c-0.1,0.2-0.3,0.4-0.5,0.6c-0.2,0.2-0.3,0.4-0.5,0.6c-0.2,0.4-0.3,0.7-0.5,1.1c-0.1,0.4-0.3,0.7-0.5,1.1L67,75.8
			c-0.1,0.2-0.2,0.4-0.2,0.5c0,0.2-0.1,0.3-0.3,0.5c-0.5,0.5-0.8,1.1-1,1.8c-0.2,0.7-0.5,1.3-0.8,1.9c-0.1,0.2-0.2,0.5-0.2,0.8
			c-0.1,0.3-0.2,0.5-0.5,0.6c0,0-0.1,0.1-0.1,0.2c0.1,0.4,0.1,0.7-0.1,0.9c-0.2,0.2-0.4,0.5-0.6,0.7L63,84.2c0.1,0,0.2-0.1,0.2,0
			c0.1,0,0.1,0,0.2,0l4.7-2.5l5.3-2.9l4-2.2l2.9-1.7l2.3-1.6c0.5-0.4,1.1-0.8,1.6-1.2c0.5-0.4,1.1-0.8,1.6-1.2l3-2.3
			c0,0,0.1,0,0.1-0.1l2.5-2.4c0.7-0.7,1.3-1.4,2-2.1c0.6-0.8,1.2-1.6,1.7-2.4c0.4-0.7,0.9-0.7,1.6-0.1c0.2,0.2,0.4,0.5,0.5,0.7
			c0.1,0.3,0.3,0.5,0.5,0.6c0.2,0.2,0.3,0.3,0.4,0.3c0.1,0,0.2,0.1,0.2,0.1c0.1,0,0.1,0.1,0.2,0.1c0.1,0.1,0.1,0.2,0.2,0.4
			c0.1,0.3,0.2,0.6,0.1,0.9c0,0.2-0.1,0.4-0.2,0.6c-0.1,0.2-0.2,0.4-0.3,0.6c0,0,0,0.1,0,0.1c0,0,0,0.1,0,0.1
			c0.1,0.2,0.2,0.4,0.3,0.6c0.1,0.2,0.2,0.4,0.4,0.6l-1,2.2C98.1,69.7,98,69.9,98,70s-0.1,0.3-0.2,0.5c-0.4,0.7-0.8,1.4-1.4,1.9
			c-0.5,0.5-1.1,1.1-1.6,1.7c-0.9,1-1.8,1.7-2.9,2.2c-0.4,0.1-0.7,0.3-0.9,0.5c-0.3,0.2-0.5,0.4-0.7,0.6l-0.5,0.4
			c-0.4,0.3-0.7,0.5-1.1,0.8c-0.4,0.2-0.7,0.5-1.1,0.9c-0.6,0.6-1.2,1.2-1.9,1.6c-0.7,0.4-1.3,0.9-2,1.4c-0.3,0.2-0.7,0.4-1,0.6
			c-0.4,0.2-0.7,0.3-1.1,0.5c-0.3,0.2-0.5,0.4-0.8,0.6c-0.3,0.2-0.5,0.3-0.8,0.3c-0.4,0-0.7,0.2-0.9,0.3c-0.3,0.2-0.5,0.4-0.7,0.5
			l-0.5,0.1l-0.5,0.1c-0.5,0.5-1,0.9-1.5,1.2c-0.6,0.3-1.2,0.6-1.8,0.8c-0.2,0.1-0.5,0.2-0.7,0.3c-0.3,0.1-0.5,0.3-0.7,0.3
			c-0.3,0.1-0.6,0.3-0.9,0.4c-0.3,0.1-0.6,0.2-0.9,0.4l-0.4,0.2c-0.5,0.5-1,0.5-1.5,0.2c-0.4,0.5-0.8,0.9-1.3,1.2
			c-0.5,0.3-1,0.5-1.5,0.7c-0.2,0.1-0.4,0.2-0.7,0.4c-0.3,0.2-0.6,0.4-0.9,0.6c-0.1,0.2-0.2,0.7-0.1,1.3c0.1,0.7,0.2,1.4,0.4,2.1
			c0.2,0.7,0.4,1.5,0.5,2.1c0.2,0.7,0.3,1.1,0.4,1.2c0.2,0.4,0.4,0.7,0.6,1.2c0.2,0.4,0.3,0.8,0.5,1.2c0.1,0.2,0.2,0.4,0.3,0.6
			c0.1,0.2,0.3,0.4,0.5,0.4c0.1,0,0.1,0.1,0.2,0.3c0,0.2,0.1,0.3,0.1,0.4c0.2,0.4,0.3,0.9,0.5,1.4c0.2,0.4,0.4,0.7,0.6,1
			c0.2,0.3,0.2,0.6,0,1.1c0,0.1,0,0.2,0,0.3c0.1,0.1,0.1,0.2,0.2,0.3c0.2,0.2,0.5,0.5,0.7,0.7c0.2,0.3,0.3,0.6,0.2,1.1
			c0.3,0,0.5,0.2,0.8,0.4c0.3,0.2,0.5,0.5,0.8,0.8c0.2,0.3,0.4,0.6,0.5,0.9c0.1,0.3,0.2,0.5,0.2,0.6c0.2,0.3,0.4,0.6,0.6,0.9
			c0.2,0.3,0.4,0.6,0.6,0.9c0.5,0,0.9,0.3,1,0.9c0,0.1,0.1,0.2,0.2,0.3c0.1,0.1,0.2,0.2,0.3,0.3c0.7,0.5,1.2,1.1,1.4,1.8
			c0.1,0.3,0.2,0.6,0.3,1c0.1,0.3,0.4,0.5,0.9,0.5l0.1,0.1c0,0,0,0.1,0.1,0.1c0.5,0.5,0.9,1,1.3,1.5c0.4,0.5,0.9,0.9,1.4,1.4
			c0.2,0.2,0.4,0.4,0.6,0.6c0.2,0.2,0.4,0.4,0.5,0.6c0.2,0.5,0.6,0.9,1.2,1.4c0.2,0.2,0.4,0.3,0.6,0.3c0.4,0,0.7,0.2,0.8,0.5
			c0.1,0.1,0.2,0.2,0.3,0.3c0.1,0.1,0.2,0.2,0.3,0.3c0.1,0.1,0.2,0.2,0.2,0.2c0.1,0.1,0.1,0.1,0.2,0.2c0,0,0.1,0,0.1,0.1
			s0,0.1,0.1,0.2c0.7,0.3,1.3,0.7,1.8,1.2c0.5,0.5,1.1,0.9,1.9,1.3c0.6,0.2,1.1,0.5,1.7,0.8c0.5,0.3,1.1,0.6,1.7,0.9
			c0.2,0.1,0.5,0.2,0.8,0.4c0.3,0.2,0.6,0.3,0.9,0.4c0.5,0.2,1,0.3,1.6,0.4c0.6,0.1,1.1,0.2,1.6,0.4c0.6,0.3,1.4,0.3,2.3,0.1
			c0.9-0.2,1.6-0.3,2.2-0.4c0.1,0,0.2,0,0.3,0c0.1,0,0.2,0,0.3,0c0.8,0.1,1.3-0.1,1.6-0.6c0.3-0.5,0.5-1.2,0.5-1.9
			c0-0.1,0-0.2,0-0.3c0-0.1,0.1-0.2,0.1-0.3c0.1,0.1,0.2,0.2,0.3,0.2c0.1,0.1,0.2,0.1,0.3,0.2c0,0,0.1,0.1,0.1,0.1
			c0,0,0.1,0,0.1,0.1v-0.4c0-0.1,0.1-0.2,0.1-0.2c0-0.1,0.1-0.1,0.2-0.2c0,0.1,0,0.3,0.1,0.5C106.3,128.8,106.4,128.9,106.4,129z
			 M36.5,94c0.4,0,0.8,0.2,1.2,0.4c0.4,0.2,0.8,0.2,1.3,0c0,0,0.1,0,0.1,0c0,0,0.1,0,0.1,0c0.2,0,0.5,0.1,0.7,0.1c0.3,0,0.5,0,0.7,0
			l2.4-0.3c0,0,0.1,0,0.2,0.1c0.4,0.2,0.7,0,0.8-0.6L42.7,94c-0.3,0-0.6,0-0.9,0c-0.3,0-0.6,0-0.9,0c-0.1,0-0.3,0-0.4,0
			c-0.2,0-0.3,0-0.4,0l-2.3-0.2c-0.1,0-0.3,0-0.4-0.1s-0.2-0.1-0.3-0.2c-0.2-0.1-0.6-0.2-1-0.3L35.4,93c0,0.1,0,0.2-0.1,0.3
			c0.2,0.1,0.4,0.2,0.6,0.4C36,93.8,36.2,93.9,36.5,94z M48.9,94.4c0.5-0.2,0.9-0.3,1.4-0.5c0.5-0.1,0.8-0.4,1.2-0.8
			c0.1,0,0.1-0.2,0.1-0.4l-0.4,0.1c-0.3,0.2-0.6,0.4-0.9,0.5c-0.3,0.2-0.6,0.2-1,0.1c-0.1,0-0.2,0-0.2,0.1c-0.1,0-0.1,0.1-0.2,0.1
			c-0.4,0.3-0.7,0.2-0.9-0.3c0-0.1-0.1-0.2-0.2-0.2c-0.1-0.1-0.2-0.1-0.3,0c-0.2,0-0.4,0.2-0.5,0.5c0,0-0.1,0.2-0.1,0.3
			c0.1,0.1,0.2,0.1,0.3,0c0.1,0,0.2-0.1,0.2-0.1c0.1,0,0.1-0.1,0.2-0.2c0,0,0,0.1,0,0.1c0,0,0,0.1,0,0.1c-0.2,0.1-0.4,0.2-0.5,0.4
			c-0.1,0.2-0.4,0.2-0.7,0c0,0-0.1,0-0.2,0.1c-0.1,0-0.1,0.1-0.2,0.1c-0.2,0-0.4,0.1-0.5,0.2c-0.2,0.1-0.3,0.1-0.5,0.2
			c-0.3,0-0.6,0-1,0c-0.3,0-0.6,0-1,0c-0.5,0.1-1,0.2-1.5,0.3c-0.5,0.1-1,0.1-1.5,0.1c-0.4,0-0.8,0-1.3,0.1c-0.5,0.1-0.9,0-1.2-0.4
			c-0.2,0-0.3,0-0.3,0.1c0,0.2,0,0.3,0.1,0.3c0.1,0.1,0.3,0.3,0.4,0.4c0.2,0.1,0.4,0.1,0.6,0c0.3-0.1,0.5-0.1,0.8-0.1
			c0.3,0,0.5,0.2,0.8,0.4c0,0.1,0.2,0.1,0.5,0.1H41c0.1-0.3,0.2-0.4,0.4-0.3c0.2,0,0.3,0.2,0.4,0.3c0.1-0.1,0.2-0.1,0.3-0.2
			c0.1,0,0.2-0.1,0.3-0.2c0.2,0.3,0.3,0.4,0.3,0.5c0.4-0.1,0.7-0.2,1.1-0.3c0.3-0.1,0.7-0.2,1-0.3c0.3-0.1,0.6-0.2,1-0.2
			c0.3-0.1,0.6-0.1,1-0.2c0.4-0.1,0.7-0.2,1.1-0.3C48.1,94.7,48.5,94.6,48.9,94.4z M44.6,93.8c-0.1,0.1-0.2,0.3-0.2,0.3
			c0,0.1,0.1,0.2,0.2,0.2c0.4,0,0.9-0.2,1.5-0.3c0.1,0,0.2-0.1,0.3-0.3L44.6,93.8z M46.8,118.8h-0.2c0,0.3,0,0.5-0.1,0.8
			c-0.1,0.3,0,0.5,0.3,0.8V118.8z M47.1,116.9c-0.6,0.6-0.7,1.1-0.2,1.6L47.1,116.9z M47,116.6c0-0.3,0.1-0.6,0.4-0.8
			c0.3-0.2,0.3-0.5,0-0.9c0,0-0.1-0.1,0-0.2c0-0.1,0-0.1,0-0.2c0.1-0.4,0.2-0.7,0.2-1.1c0.1-0.4,0.1-0.8,0.2-1.1
			c0.1-0.4,0.2-0.8,0.3-1.2c0.1-0.4,0.2-0.8,0.3-1.1l0.1-1h-0.1c0.1-0.2,0.2-0.5,0.2-0.7c0.1-0.2,0.2-0.5,0.2-0.7
			c0.1-0.2,0.2-0.5,0.3-0.7c0.1-0.2,0.1-0.5-0.1-0.8v-0.2l0.8-2c0.1-0.2,0.2-0.4,0.2-0.6c0.1-0.2,0.1-0.4,0.1-0.6
			c0-0.6,0.1-1.1,0.4-1.6c0.1-0.2,0.2-0.5,0.2-0.8c0-0.1,0-0.2,0-0.3c0-0.1-0.1-0.1-0.1-0.1c-0.2-0.1-0.4,0-0.4,0.1
			c-0.1,0.2-0.2,0.5-0.2,0.7l-0.3,1.9l-0.1,0.1c-0.1,0.2-0.2,0.4-0.3,0.6c-0.1,0.2-0.2,0.4-0.3,0.6l-0.3,2.5c0,0.1,0,0.1,0,0.2
			c0,0,0,0.1,0,0.1l-0.5,1l-0.3,1.7c-0.1,0.4-0.2,0.8-0.4,1.2c-0.2,0.4-0.2,0.8-0.1,1.2c0,0.5,0,1-0.1,1.5c-0.1,0.5-0.2,1-0.3,1.5
			c0,0.3-0.1,0.6-0.1,0.9C46.8,116,46.8,116.3,47,116.6z M48,120.1c0-0.2,0-0.3,0-0.5c0-0.1,0-0.3,0-0.5c-0.4,0.2-0.6,0.4-0.6,0.6
			c0,0.2,0,0.4,0,0.6c0,0.4,0,0.7,0.1,1c0,0.2,0,0.3,0.1,0.4h0.2c0.1-0.2,0.1-0.3,0.1-0.4c0-0.2,0.1-0.4,0.1-0.6
			C48,120.5,48,120.3,48,120.1z M52.1,104.1c0.2,0.1,0.3,0.1,0.4,0c0.1-0.1,0.1-0.2,0.1-0.5h-0.3c-0.1,0-0.3,0-0.6-0.1l0.2-0.6
			c0-0.1,0.1-0.2,0.2-0.2c0.1,0,0.1-0.1,0.1-0.2l0.2-2.4c-0.2,0-0.4,0-0.5,0c-0.1,0-0.2,0.2-0.3,0.5c-0.1,0.5-0.2,1-0.3,1.4
			c-0.1,0.4-0.3,0.9-0.4,1.4l-0.4,1.7c-0.1,0.3-0.2,0.5-0.3,0.8c-0.1,0.3-0.2,0.6-0.2,0.9c0,0.6-0.3,1.1-0.8,1.3
			c0,0.1,0.1,0.3,0.1,0.3c0,0.1,0,0.2,0,0.3l-0.5,2.5c0,0.3-0.1,0.5-0.2,0.8c-0.1,0.3-0.1,0.5-0.2,0.8l-0.3,2.5c0,0.2,0,0.3,0,0.5
			c0,0.1,0,0.3,0,0.5l-0.2,1l-0.1,0.9c0,0.1,0,0.3-0.1,0.6c0.7-0.2,0.9-0.5,0.8-1.1c0-0.1,0-0.3,0.1-0.6c0.1-0.3,0.2-0.6,0.2-1
			c0.1-0.3,0-0.7-0.3-1c0.4-0.1,0.6-0.2,0.6-0.4c0-0.2,0-0.4-0.1-0.7c0-0.1,0-0.2,0.1-0.4c0.1-0.2,0.2-0.5,0.3-0.8
			c0.1-0.3,0.2-0.6,0.1-0.8c0-0.3,0-0.6,0.1-0.9c0.1-0.2,0.2-0.5,0.3-0.7c0-0.2,0.1-0.5,0.2-0.7c0.1-0.2,0.1-0.5,0.2-0.7
			c0.1-0.3,0.1-0.5,0.1-0.8s0-0.5,0.1-0.8l0.9-2.8c0,0,0-0.1,0-0.1c-0.1-0.4-0.1-0.5,0.1-0.5S51.8,104,52.1,104.1z M51.4,108.1
			c0.4-0.2,0.4-0.5,0-0.8l-0.4,0.9C51.2,108.1,51.4,108.1,51.4,108.1z M54.1,100c0,0,0.1-0.2,0.1-0.3c-0.2,0-0.3,0-0.3,0.1
			c-0.1,0.1-0.2,0.2-0.2,0.3c-0.1,0.1-0.1,0.3-0.2,0.3l0.1,0.1L54.1,100z M56.1,88.2c0,0,0.2,0,0.3,0.1c0.1-0.4,0.2-0.6,0.3-0.8
			l-0.3-0.1L56.1,88.2z M56.6,99.7c0,0,0-0.1,0-0.1c0,0,0-0.1,0-0.1L56.6,99.7z M61.4,87.2c0,0.1,0,0.2,0,0.2c0,0.1,0.1,0.1,0.1,0.2
			l0.5-0.1c0,0,0.1-0.1,0.1-0.1c0,0,0.1-0.1,0.1-0.1l0.1-0.1c0.2,0.1,0.3,0.2,0.4,0.1c0.1-0.1,0.2-0.2,0.4-0.3
			c0.1-0.1,0.3-0.2,0.4-0.2c0.1,0,0.3,0.1,0.4,0.2l0.1-0.1l0.1-0.5c0,0,0,0.1,0,0.1c0,0,0,0,0,0.1l2.1-1.4l0.3,0.5h0.2
			c0-0.2-0.1-0.4-0.1-0.6c0.1,0,0.2-0.1,0.3-0.2c0.1-0.1,0.2-0.1,0.3-0.2c0.1,0,0.3-0.1,0.4,0c0.1,0,0.3,0,0.4,0c0,0,0.1,0,0.1-0.1
			c0,0,0-0.1,0.1-0.1l1.1-0.8c0.1,0,0.2-0.1,0.2-0.1c0.1,0,0.1,0,0.2-0.1c0.6-0.7,1.4-1.3,2.4-1.6c0.3-0.1,0.6-0.2,0.9-0.4
			c0.3-0.2,0.5-0.4,0.8-0.6c0,0,0.1-0.2,0.1-0.5l-0.5,0.1c-0.2,0.1-0.4,0.3-0.6,0.5c-0.2,0.2-0.4,0.3-0.6,0.4
			c-0.4,0.2-0.7,0.4-1.1,0.5c-0.4,0.1-0.7,0.3-1.1,0.4l-2.5,1.4c-0.5,0.3-1.1,0.6-1.6,0.9c-0.5,0.3-1.1,0.6-1.6,0.9
			c-0.3,0.1-0.5,0.2-0.8,0.3c-0.3,0.1-0.5,0.2-0.8,0.3c-0.3,0.1-0.6,0.3-0.9,0.4C61.7,86.6,61.5,86.8,61.4,87.2z M64.4,88.2
			c0.3,0.1,0.5,0.1,0.6,0c0.1-0.1,0.2-0.3,0.3-0.6L64.4,88.2z M76.2,123.4c0.1-0.5,0.1-0.7,0-0.8c-0.1-0.1-0.4-0.1-0.9,0
			c0.2,0.1,0.3,0.3,0.5,0.4C75.8,123.2,76,123.3,76.2,123.4z M78.8,125.4c-0.2-0.2-0.3-0.4-0.5-0.5c-0.1-0.2-0.3-0.3-0.4-0.5
			c0,0-0.1-0.1-0.2-0.1c-0.1,0-0.2,0-0.3,0c0,0.2,0,0.3,0.1,0.4c0.2,0.1,0.4,0.3,0.5,0.4c0.2,0.1,0.4,0.3,0.6,0.5L78.8,125.4z
			 M79.4,126.4c0.7,0.5,1.4,1.1,2,1.6c0.7,0.5,1.4,1.1,2.1,1.6c0-0.2-0.2-0.5-0.6-0.9c-0.4-0.4-0.8-0.8-1.3-1.1
			c-0.5-0.4-0.9-0.7-1.3-1c-0.4-0.3-0.7-0.4-0.8-0.4c0,0-0.1,0.1-0.1,0.1C79.4,126.3,79.4,126.4,79.4,126.4z M80.4,129.6
			c0.3,0.2,0.6,0.5,0.9,0.7c0.3,0.2,0.6,0.5,0.9,0.7c0-0.4-0.3-0.8-0.6-1.1C81.1,129.6,80.8,129.5,80.4,129.6z M82.4,131
			c0.8,0.8,1.4,1.2,2,1C83.7,131.2,83.1,130.9,82.4,131z M88.6,133c0.2,0.2,0.6,0.3,1,0.3c0.4,0,0.8-0.1,1-0.2
			c-0.5-0.2-1-0.4-1.5-0.5c-0.5-0.1-1-0.4-1.4-0.8c-0.4-0.4-0.9-0.6-1.3-0.7c-0.5-0.1-0.9-0.3-1.4-0.6l-0.1,0.1
			c0.1,0.1,0.2,0.2,0.3,0.3c0.1,0.1,0.2,0.2,0.3,0.2C86.6,131.6,87.7,132.2,88.6,133z"/>
		<path class="st3" d="M144.7,108.1c-0.1,0.1-0.2,0.2-0.3,0.3c-0.1,0.1-0.2,0.3-0.2,0.5c0,0.4-0.3,0.7-0.8,1.1
			c-0.1,0.1-0.3,0.3-0.5,0.6c0,0.1-0.1,0.3-0.2,0.5v0.1l-0.1,0.5l0.1,0.1l-0.1,0.1c-0.1,0.1-0.3,0.2-0.4,0.3
			c-0.1,0.1-0.3,0.3-0.4,0.3c-0.3,0.2-0.5,0.4-0.8,0.6c-0.3,0.2-0.5,0.4-0.8,0.6c-0.1,0.1-0.2,0.2-0.2,0.2c-0.1,0-0.1,0.1-0.2,0.2
			c-0.1,0.1-0.3,0.2-0.4,0.3c-0.1,0.1-0.2,0.2-0.4,0.3c-0.4,0.2-0.8,0.5-1.2,0.7c-0.4,0.2-0.8,0.5-1.2,0.7c-0.2,0.2-0.5,0.3-0.8,0.5
			c-0.3,0.1-0.5,0.3-0.8,0.4c-0.1,0.1-0.2,0.1-0.2,0.2c0,0-0.1,0.1-0.2,0.2l-0.3,0.1c-0.2,0.1-0.4,0.3-0.6,0.4
			c-0.2,0.1-0.4,0.3-0.6,0.4c-0.5,0.3-1,0.5-1.4,0.8c-0.4,0.3-0.9,0.6-1.3,1c-0.1,0.1-0.3,0.3-0.5,0.4c-0.2,0.1-0.4,0.2-0.6,0.4
			c-0.4,0.2-0.7,0.4-1,0.6c-0.3,0.2-0.6,0.5-0.9,0.8c-0.4,0.4-1,0.7-1.9,0.9c-0.2,0.1-0.4,0.2-0.6,0.2c-0.2,0-0.3,0.1-0.5,0.2h-0.1
			c-0.1,0-0.2,0.1-0.4,0.2c-0.2,0.1-0.3,0.2-0.3,0.4c-0.1,0.3-0.3,0.5-0.6,0.6c-0.3,0.1-0.6,0.3-1,0.3c-0.1,0-0.2,0.1-0.3,0.1
			c-0.1,0-0.2,0.1-0.3,0.1c0,0-0.1,0.1-0.2,0.1c-0.1,0-0.2,0.1-0.3,0.1c-0.1,0-0.3,0.1-0.4,0.2c-0.7,0.6-1.5,0.8-2.4,0.5
			c-0.1-0.1-0.3-0.1-0.6-0.1c-0.3,0-0.5,0.1-0.7,0.3c-0.2,0.2-0.5,0.3-0.7,0.3c-0.3,0-0.6,0-0.9,0c-0.2,0-0.5,0-0.7,0
			c-0.3,0-0.5,0-0.8,0.1c-0.5,0.2-1.2,0.2-2,0.1h-0.8h-0.3h-0.1c-0.4-0.1-0.7-0.3-1.1-0.4c-0.3-0.1-0.7-0.2-1.1-0.3
			c-0.8-0.2-1.6-0.5-2.5-0.8c-0.7-0.3-1.5-0.6-2.2-0.9c-0.8-0.3-1.4-0.7-2.1-1.2c-0.2-0.1-0.4-0.2-0.6-0.4c-0.2-0.2-0.4-0.4-0.6-0.6
			c-0.1-0.1-0.2-0.2-0.2-0.2c-0.1-0.1-0.1-0.1-0.2-0.2l-0.1-0.1c0,0-0.1-0.1-0.2-0.2c-0.1-0.1-0.2-0.2-0.3-0.2
			c-0.4-0.1-0.8-0.3-1-0.6c-0.3-0.3-0.5-0.6-0.8-1c-0.3-0.4-0.7-0.8-1.2-1.2c0,0,0-0.1-0.1-0.1c0-0.5-0.2-0.8-0.4-1.1
			c-0.2-0.3-0.5-0.5-0.8-0.8l-0.1-0.1c-0.1-0.1-0.2-0.2-0.2-0.4c-0.1-0.2-0.1-0.3-0.2-0.5c-0.1-0.1-0.2-0.3-0.2-0.4
			c0-0.1-0.1-0.3-0.2-0.4c-0.4-0.7-0.7-1.4-0.9-2.1c-0.2-0.8-0.4-1.6-0.5-2.7c0-0.2-0.1-0.4-0.1-0.5c0-0.2,0-0.4-0.1-0.5
			c-0.1-0.6-0.2-1.3-0.2-1.9c-0.1-0.6-0.1-1.3,0-1.9l0.1-0.1c0.1-0.7,0.2-1.4,0.2-2c0.1-0.7,0.2-1.3,0.3-2c0.2-1.1,0.5-2.2,0.8-3.3
			c0.3-1.1,0.6-2.2,1-3.4c0.1-0.5,0.3-1,0.5-1.4c0.2-0.4,0.5-0.9,0.8-1.4c0.1-0.3,0.3-0.5,0.4-0.8c0.1-0.3,0.2-0.5,0.3-0.8
			c0.1-0.2,0.2-0.4,0.2-0.6c0-0.2,0.1-0.4,0.1-0.6c0-0.1,0.1-0.2,0.1-0.2c0-0.1,0-0.1,0.1-0.2c0,0,0-0.1,0-0.1c0,0,0-0.1,0-0.1
			c0.3-0.5,0.6-1.1,1-1.7c0.4-0.6,0.8-1.3,1.3-2c0.4-0.7,0.9-1.3,1.3-2c1-1.5,2.1-3,3.3-4.6c1.2-1.6,2.4-3.2,3.7-4.9
			c0.4-0.5,0.8-1,1.2-1.4c0.4-0.4,0.9-0.9,1.4-1.3c0-0.1,0.1-0.2,0.2-0.2c0.1-0.1,0.1-0.1,0.2-0.2c0.5-0.4,0.9-0.8,1.3-1.2
			c0.4-0.4,0.8-0.8,1.3-1.2c0.7-0.6,1.4-1.3,2-1.9c0.7-0.7,1.4-1.3,2-2c0.5-0.5,0.9-1,1.4-1.4c0.5-0.4,1-0.8,1.5-1.2l1.6-1.4
			c0.6-0.5,1.2-0.9,1.7-1.3c0.6-0.4,1.1-0.9,1.7-1.3c0.2-0.1,0.4-0.3,0.5-0.4c0.2-0.1,0.3-0.2,0.5-0.4c0.1-0.1,0.2-0.2,0.4-0.4
			c0.2-0.2,0.3-0.4,0.3-0.8v-0.2c0.2,0.1,0.4,0.2,0.6,0.2c0.2,0,0.4,0.1,0.6,0.1c0.8,0,1.6,0.4,2.5,1c0.3,0.2,0.5,0.5,0.8,0.7
			c0.3,0.2,0.5,0.5,0.8,0.7c0.3,0.2,0.5,0.5,0.8,0.7c0.3,0.3,0.5,0.5,0.8,0.7c0.2,0.5,0.4,0.9,0.7,1.2c0.3,0.3,0.6,0.7,0.9,1
			c0.2,0.2,0.4,0.5,0.6,0.7c0.2,0.2,0.3,0.5,0.5,0.7c0,0,0.1,0.1,0.1,0.1c0,0,0,0.1,0.1,0.1c0.3,0.5,0.5,1,0.7,1.4
			c0.2,0.4,0.3,0.8,0.4,1.3c0,0.2,0,0.4,0,0.6c0.1,0.2,0.1,0.4,0.2,0.6c0.1,0.1,0.2,0.3,0.2,0.4c0,0.1,0.1,0.2,0.1,0.3
			c0,0.4,0,0.8,0,1.2c0,0.4,0,0.8-0.1,1.3c0,0.1,0.1,0.3,0,0.4c0,0.1,0,0.3,0,0.5c-0.1,0.2-0.1,0.3,0,0.4c0.1,0.1,0.1,0.2,0.2,0.3
			c0.2,0.2,0.2,0.5,0,0.9c0,0.1-0.1,0.3-0.1,0.4c0,0.1-0.1,0.3-0.1,0.4V73c0,0.1-0.1,0.3-0.1,0.4c0,0.2,0,0.4,0.1,0.6
			c0,0,0.1,0.1,0.1,0.2c-0.3,0.1-0.5,0.3-0.6,0.6c-0.1,0.3-0.2,0.5-0.3,0.7c0,0-0.1,0.1-0.1,0.1c0,0,0,0.1-0.1,0.1
			c-0.1,0.3-0.2,0.6-0.3,0.9c-0.1,0.3-0.3,0.6-0.3,0.9c-0.2,0.5-0.4,1-0.6,1.4c-0.2,0.5-0.4,0.9-0.6,1.4c-0.1,0.2-0.2,0.3-0.3,0.5
			c-0.1,0.1-0.2,0.3-0.3,0.4c-0.1,0-0.1,0.1-0.2,0.1c0,0-0.1,0.1-0.2,0.1c-0.9-0.1-1.5,0.3-2,1.4c0,0-0.1,0.1-0.2,0.3
			c-0.1,0.1-0.4,0.2-0.7,0.2c0,0-0.1,0-0.2-0.1c-0.1,0-0.1-0.1-0.2-0.1c0.4-1.4,0.7-2.8,1.1-4.1c0.3-1.3,0.6-2.7,0.8-4.2
			c0.1-0.8,0.1-1.6,0.2-2.6c0-1,0-1.9,0-2.6c0-0.3,0.1-0.6,0.1-0.9c0-0.3,0-0.6,0.1-0.9c0-0.5,0-0.8-0.1-1c-0.1-0.1-0.2-0.3-0.2-0.4
			c0-0.1-0.1-0.2-0.1-0.4c0,0-0.2-0.1-0.4-0.1c-0.2,0-0.3-0.1-0.4-0.1l-0.3-0.6l-0.5,0.3c-0.1,0-0.2,0-0.2,0.1
			c-0.3,0.1-0.5,0.2-0.6,0.3c-0.1,0.1-0.3,0.2-0.4,0.3c-0.1,0.1-0.3,0.2-0.4,0.3c-0.9,0.5-1.7,1.1-2.4,1.6c-0.8,0.6-1.6,1.3-2.4,2
			c-0.8,0.7-1.7,1.4-2.6,2.2c-1.2,1.1-2.5,2.3-3.7,3.5c-0.3,0.3-0.5,0.7-0.7,1c-0.3,0.3-0.4,0.5-0.5,0.7c-0.1,0.1-0.2,0.2-0.3,0.2
			c-0.1,0.1-0.2,0.1-0.4,0.2c-0.1,0.1-0.2,0.2-0.3,0.3c-0.1,0.1-0.3,0.2-0.4,0.3c-0.4,0.4-0.7,0.8-1.1,1.2c-0.3,0.4-0.7,0.8-1.1,1.2
			c-0.6,0.7-1.2,1.4-1.8,2.1c-0.6,0.7-1.1,1.4-1.7,2.1l-0.1,0.1c-0.1,0.1-0.2,0.2-0.3,0.4l-0.1,0.1c-0.1,0.1-0.2,0.2-0.2,0.3
			c-0.1,0.1-0.2,0.2-0.2,0.3c-0.1,0.1-0.1,0.2-0.2,0.3l0.1,0.1c-0.1,0.1-0.2,0.3-0.3,0.5c-0.1,0.2-0.1,0.5,0.1,0.7l-0.1,0.1v0.1
			c-0.1,0.1-0.2,0.2-0.2,0.2c0,0-0.1,0.1-0.2,0.2c-0.2,0.3-0.3,0.4-0.5,0.4c-0.4,0-0.6,0.1-0.8,0.4c-0.2,0.3-0.3,0.5-0.4,0.6
			c-0.1,0.2-0.1,0.4-0.2,0.6c0,0.2-0.1,0.4-0.2,0.5c0,0.1-0.1,0.3-0.1,0.4c0,0.1-0.1,0.3-0.1,0.5v0.1c0,0-0.1,0-0.1,0.1
			c0,0,0,0.1-0.1,0.1c-0.4,0.2-0.6,0.4-0.8,0.6c-0.2,0.2-0.3,0.5-0.5,0.7c-0.1,0.3-0.3,0.5-0.4,0.6c-0.1,0.1-0.2,0.2-0.3,0.4
			c-0.1,0.2-0.1,0.4,0,0.6c0,0.2-0.1,0.5-0.3,0.8c-0.1,0.2-0.2,0.4-0.3,0.5c-0.1,0.2-0.1,0.4-0.1,0.6c0,0-0.1,0-0.1,0.1
			c0,0-0.1,0.1-0.2,0.1c-0.1,0.1-0.1,0.2-0.2,0.3c0,0.1-0.1,0.2-0.2,0.3c-0.1,0.2-0.2,0.4-0.2,0.6c0,0.2-0.1,0.3-0.1,0.5
			c-0.1,0.2-0.2,0.5-0.3,0.8c-0.1,0.2-0.2,0.4-0.3,0.6c-0.1,0.2-0.2,0.4-0.3,0.6c-0.1,0.1-0.2,0.2-0.2,0.3c0,0.1-0.1,0.2-0.1,0.3
			c-0.3,0.4-0.5,0.8-0.8,1.3c-0.2,0.4-0.4,1-0.4,1.6c0,0.4-0.1,0.9-0.3,1.5c-0.1,0.2-0.2,0.4-0.2,0.6c0,0.2-0.1,0.4-0.1,0.6
			c-0.5,2.1-0.8,4.2-1.1,6.1c0,0.4,0.1,0.8,0.3,1.4c0.2,0.6,0.4,1.1,0.4,1.4c0.1,0.2,0.1,0.4,0.1,0.6c0,0.2,0,0.3,0,0.5
			c0.1,0.9,0.6,1.5,1.5,1.7c1.2,0.3,2.4,0.5,3.6,0.7c1.2,0.2,2.5,0.1,3.7-0.2c0.3-0.1,0.6-0.2,0.9-0.2c0.3,0,0.6-0.1,0.8-0.2
			c0.4-0.1,0.8-0.2,1.2-0.2c0.4-0.1,0.8-0.2,1.1-0.3c0.2-0.1,0.5-0.2,0.8-0.2c0.3,0,0.5-0.1,0.8-0.2c0.7-0.2,1.5-0.5,2.3-0.7
			c0.8-0.2,1.5-0.6,2.1-1.1c0.2-0.1,0.5-0.2,0.7-0.3c0.2-0.1,0.5-0.2,0.9-0.3c0.2-0.1,0.4-0.2,0.5-0.2c0.2-0.1,0.4-0.1,0.5-0.2
			l0.3-0.1c0.9-0.4,1.7-0.8,2.6-1.2c0.8-0.4,1.7-0.8,2.5-1.2c1.1-0.5,2.1-1.1,3.1-1.6c1-0.5,1.9-1.1,2.7-1.6
			c0.2-0.1,0.4-0.2,0.5-0.3c0.2-0.1,0.3-0.2,0.4-0.3c0.3,0.5,0.5,0.8,0.6,0.8c0.1,0,0.3-0.1,0.6-0.3c0.1-0.1,0.2-0.1,0.3-0.2
			c0.1,0,0.2-0.1,0.3-0.2c0.2-0.1,0.4-0.2,0.5-0.2c0.2,0,0.3-0.1,0.5-0.2c0.4-0.4,0.8-0.7,1.2-0.9c0.4-0.2,0.8-0.5,1.3-0.7
			c0.7-0.3,1.3-0.6,1.9-1c0.6-0.4,1.2-0.8,1.7-1.3c0-0.1,0.1-0.2,0.1-0.5c0.6,0.4,1.2,0.4,1.8-0.1c0.3-0.2,0.4-0.3,0.5-0.3
			c-0.1,0-0.2,0-0.1,0.1c-0.4,0.4-0.8,0.7-1.2,0.9c-0.4,0.3-0.9,0.5-1.3,0.7c-0.1,0.1-0.3,0.2-0.4,0.2c-0.1,0-0.2,0.1-0.4,0.2
			c-0.4,0.2-0.8,0.5-1.2,0.8c-0.4,0.3-0.8,0.6-1.2,0.9c-0.1,0.1-0.3,0.3-0.4,0.4c-0.2,0.1-0.3,0.2-0.4,0.4c0,0-0.1,0-0.2,0.1
			c-0.5,0.1-0.9,0.3-1.3,0.6c-0.4,0.3-0.8,0.5-1.1,0.8c-0.5,0.4-1.1,0.8-1.6,1c-0.3,0.1-0.5,0.2-0.6,0.3c-0.7,0.3-1.4,0.6-2.1,1
			c-0.4,0.2-0.8,0.4-1.2,0.8c-0.2,0.1-0.3,0.2-0.5,0.3c-0.1,0.1-0.3,0.2-0.4,0.3c-0.3,0.2-0.6,0.3-1.1,0.5c0,0.1-0.2,0.2-0.5,0.3
			l-0.5,0.3l0.5,1.4l0.5-0.1h0.3c0.4,0,0.6,0,0.8-0.1c0.3-0.1,0.6-0.2,0.9-0.3c0.3-0.1,0.5-0.2,0.8-0.3c0.2-0.1,0.4-0.2,0.6-0.3
			c0.2-0.1,0.4-0.4,0.4-0.7h0.1c0,0,0.1-0.1,0.1-0.1c0,0,0.1,0,0.1-0.1c0.8-0.3,1.5-0.6,2.1-1c0.1-0.1,0.2-0.1,0.3-0.2
			c0.1,0,0.2-0.1,0.3-0.2c0.2-0.1,0.4-0.2,0.6-0.3c0.2-0.1,0.5-0.2,0.7-0.4c0.3-0.2,0.5-0.4,0.8-0.5c0.2-0.2,0.5-0.3,0.9-0.5
			c0.5-0.3,1-0.5,1.4-0.8c0.4-0.3,0.9-0.5,1.4-0.8c0.1-0.1,0.2-0.1,0.3-0.2c0.1,0,0.2-0.1,0.3-0.2c0,0,0.1,0,0.1,0c0,0,0.1,0,0.1,0
			c-0.2,0.1-0.3,0.2-0.5,0.3c-0.1,0.1-0.3,0.2-0.4,0.3c0,0,0.1,0.1,0.1,0.2c0.1,0,0.2,0,0.3,0.1c0.1,0,0.2,0,0.2,0
			c0.4-0.2,0.7-0.4,1.1-0.6c0.3-0.2,0.7-0.4,1.1-0.6c0.2-0.1,0.4-0.3,0.5-0.4c0.1-0.1,0.3-0.2,0.5-0.3c0.4-0.2,0.5-0.5,0.5-1
			c0.1,0,0.3-0.1,0.4-0.1c0.2,0,0.3-0.1,0.4-0.2c0.1-0.1,0.2-0.2,0.3-0.3c0.1-0.1,0.3-0.2,0.5-0.3l-0.1,0.1c0.4,0,0.8-0.2,1.2-0.4
			c0.4-0.2,0.6-0.6,0.7-0.9c0.2-0.1,0.3-0.2,0.3-0.2l0.1,0.1c0.4,0,0.7-0.1,0.9-0.2c0.2-0.2,0.2-0.2,0.2-0.3c0,0-0.2,0.1-0.5,0.4
			c-0.3,0.3-0.7,0.9-1.3,1.9c-0.4,0.5-1,0.9-1.7,1.2c-0.1,0.1-0.3,0.2-0.4,0.3C145.1,107.8,145,107.9,144.7,108.1L144.7,108.1z
			 M93.3,107.4c0.4-0.2,0.6-0.5,0.7-1c0.1-0.5-0.1-0.9-0.4-1.2c0,0.4-0.1,0.7-0.1,1.1C93.4,106.6,93.4,107,93.3,107.4z M94.2,104.3
			c0.1-0.1,0.2-0.2,0.2-0.3c0.1-0.1,0.2-0.2,0.4-0.5l-0.7-0.3c-0.1,0.1-0.1,0.2-0.2,0.3c0,0.1-0.1,0.3-0.2,0.3
			C93.8,104.1,93.9,104.2,94.2,104.3z M98.3,92.7c-0.5,0.2-0.8,0.5-0.9,0.7c-0.1,0.2,0,0.5,0.2,1c0.4-0.4,0.6-0.6,0.7-0.8
			C98.4,93.4,98.4,93.1,98.3,92.7z M99.2,90.1c-0.1,0.3-0.3,0.6-0.3,0.9c-0.1,0.3-0.2,0.6-0.3,1c0,0,0,0.1,0.1,0.2
			c0.5-0.8,1-1.6,1.4-2.4c0.5-0.8,0.9-1.6,1.4-2.4c0,0-0.1-0.1-0.1-0.1c0,0-0.1-0.1-0.1-0.1c-0.3,0.1-0.5,0.3-0.7,0.5
			c-0.1,0.3-0.3,0.6-0.3,0.9c-0.1,0.3-0.3,0.6-0.5,0.8C99.5,89.6,99.4,89.9,99.2,90.1z M101.5,86.6c0,0,0,0.1,0.1,0.2
			c0,0.1,0.1,0.1,0.1,0.2c0.1,0,0.2-0.1,0.3-0.1c0.1,0,0.2,0,0.2-0.1c0.2-0.4,0.4-0.7,0.5-1.1c0.1-0.1,0.1-0.2,0.1-0.3
			c0-0.1,0-0.2,0.1-0.3c0,0-0.1-0.1-0.1-0.1c0,0-0.1-0.1-0.1-0.1c-0.2,0.3-0.4,0.6-0.6,0.9C101.9,86,101.7,86.3,101.5,86.6z
			 M104.1,83.5c-0.7,0.2-1.1,0.4-1.2,0.5c-0.1,0.1,0,0.4,0.3,0.9C103.6,84.4,103.9,83.9,104.1,83.5z M135.8,106.7
			c-0.2,0.2-0.4,0.4-0.5,0.6c-0.2,0.2-0.4,0.3-0.6,0.5c-0.2,0.1-0.5,0.2-0.7,0.3c-0.2,0.1-0.5,0.2-0.7,0.3c0.1-0.1,0.2-0.2,0.3-0.2
			c0.1-0.1,0.2-0.1,0.3-0.2c0.2-0.2,0.5-0.4,0.7-0.5c0.2-0.2,0.5-0.3,0.7-0.4c0.4-0.2,0.7-0.5,1.1-0.7c0.3-0.2,0.7-0.5,1.1-0.7
			c0.2-0.1,0.5-0.3,0.7-0.4c0.2-0.2,0.5-0.3,0.8-0.4c0.3-0.2,0.4-0.3,0.5-0.4c0.2-0.2,0.4-0.3,0.6-0.4c0.2-0.1,0.5-0.3,1-0.6
			l0.3,0.3c-0.2,0-0.4,0-0.5,0.1c-0.3,0.1-0.6,0.3-0.9,0.4c-0.3,0.2-0.6,0.4-0.9,0.6c-0.4,0.3-0.7,0.6-1.1,1c-0.4,0.3-0.8,0.6-1.2,1
			C136.5,106.3,136.1,106.3,135.8,106.7z M145,102.8c-0.1,0.1-0.3,0.2-0.3,0.2c-0.1,0.1-0.2,0.1-0.3,0.2
			C144.5,103.1,144.7,102.9,145,102.8z"/>
	</g>
</g>
</svg>
